<mxfile host="app.diagrams.net" agent="Mozilla/5.0 (Windows NT 10.0; Win64; x64) AppleWebKit/537.36 (KHTML, like Gecko) Chrome/132.0.0.0 Safari/537.36 Edg/132.0.0.0" version="26.0.11">
  <diagram name="Page-1" id="hGb2lEd_QG3he4YBrYr1">
    <mxGraphModel dx="788" dy="561" grid="1" gridSize="10" guides="1" tooltips="1" connect="1" arrows="1" fold="1" page="1" pageScale="1" pageWidth="850" pageHeight="1100" math="0" shadow="0">
      <root>
        <mxCell id="0" />
        <mxCell id="1" parent="0" />
        <mxCell id="s2RkI9bYxUWYaikwDauW-33" value="" style="edgeStyle=orthogonalEdgeStyle;rounded=0;orthogonalLoop=1;jettySize=auto;html=1;dashed=1;" edge="1" parent="1" source="s2RkI9bYxUWYaikwDauW-5" target="s2RkI9bYxUWYaikwDauW-32">
          <mxGeometry relative="1" as="geometry" />
        </mxCell>
        <mxCell id="s2RkI9bYxUWYaikwDauW-5" value="Detector&lt;div&gt;CCD&lt;/div&gt;" style="whiteSpace=wrap;html=1;" vertex="1" parent="1">
          <mxGeometry x="10" y="10" width="120" height="60" as="geometry" />
        </mxCell>
        <mxCell id="s2RkI9bYxUWYaikwDauW-35" value="" style="edgeStyle=orthogonalEdgeStyle;rounded=0;orthogonalLoop=1;jettySize=auto;html=1;dashed=1;strokeWidth=2;" edge="1" parent="1" source="s2RkI9bYxUWYaikwDauW-32" target="s2RkI9bYxUWYaikwDauW-34">
          <mxGeometry relative="1" as="geometry" />
        </mxCell>
        <mxCell id="s2RkI9bYxUWYaikwDauW-32" value="Amplification&lt;div&gt;Op-Amp&lt;/div&gt;" style="whiteSpace=wrap;html=1;" vertex="1" parent="1">
          <mxGeometry x="170" y="10" width="120" height="60" as="geometry" />
        </mxCell>
        <mxCell id="s2RkI9bYxUWYaikwDauW-37" value="" style="edgeStyle=orthogonalEdgeStyle;rounded=0;orthogonalLoop=1;jettySize=auto;html=1;shape=link;dashed=1;dashPattern=1 1;" edge="1" parent="1" source="s2RkI9bYxUWYaikwDauW-34" target="s2RkI9bYxUWYaikwDauW-36">
          <mxGeometry relative="1" as="geometry" />
        </mxCell>
        <mxCell id="s2RkI9bYxUWYaikwDauW-42" value="SPI" style="edgeLabel;html=1;align=center;verticalAlign=middle;resizable=0;points=[];" vertex="1" connectable="0" parent="s2RkI9bYxUWYaikwDauW-37">
          <mxGeometry x="0.0786" y="4" relative="1" as="geometry">
            <mxPoint x="-3" y="14" as="offset" />
          </mxGeometry>
        </mxCell>
        <mxCell id="s2RkI9bYxUWYaikwDauW-34" value="Sampling&lt;div&gt;ADC&lt;/div&gt;" style="whiteSpace=wrap;html=1;" vertex="1" parent="1">
          <mxGeometry x="330" y="10" width="120" height="60" as="geometry" />
        </mxCell>
        <mxCell id="s2RkI9bYxUWYaikwDauW-40" value="" style="edgeStyle=orthogonalEdgeStyle;rounded=0;orthogonalLoop=1;jettySize=auto;html=1;" edge="1" parent="1" source="s2RkI9bYxUWYaikwDauW-36" target="s2RkI9bYxUWYaikwDauW-39">
          <mxGeometry relative="1" as="geometry">
            <Array as="points">
              <mxPoint x="590" y="120" />
            </Array>
          </mxGeometry>
        </mxCell>
        <mxCell id="s2RkI9bYxUWYaikwDauW-36" value="Processing&lt;div&gt;Microcontroller&lt;/div&gt;" style="whiteSpace=wrap;html=1;" vertex="1" parent="1">
          <mxGeometry x="530" y="10" width="120" height="60" as="geometry" />
        </mxCell>
        <mxCell id="s2RkI9bYxUWYaikwDauW-41" style="edgeStyle=orthogonalEdgeStyle;rounded=0;orthogonalLoop=1;jettySize=auto;html=1;exitX=0;exitY=0.5;exitDx=0;exitDy=0;entryX=0.5;entryY=1;entryDx=0;entryDy=0;startArrow=oval;startFill=1;" edge="1" parent="1" source="s2RkI9bYxUWYaikwDauW-39" target="s2RkI9bYxUWYaikwDauW-5">
          <mxGeometry relative="1" as="geometry" />
        </mxCell>
        <mxCell id="s2RkI9bYxUWYaikwDauW-39" value="Inverter&lt;div&gt;NOT-Gate&lt;/div&gt;" style="whiteSpace=wrap;html=1;" vertex="1" parent="1">
          <mxGeometry x="250" y="90" width="120" height="60" as="geometry" />
        </mxCell>
      </root>
    </mxGraphModel>
  </diagram>
</mxfile>
